<?xml version="1.0" encoding="utf-8" standalone="no"?>
<!DOCTYPE svg PUBLIC "-//W3C//DTD SVG 1.1//EN"
  "http://www.w3.org/Graphics/SVG/1.1/DTD/svg11.dtd">
<svg xmlns:xlink="http://www.w3.org/1999/xlink" width="1008pt" height="410.4pt" viewBox="0 0 1008 410.4" xmlns="http://www.w3.org/2000/svg" version="1.1">
 <metadata>
  <rdf:RDF xmlns:dc="http://purl.org/dc/elements/1.1/" xmlns:cc="http://creativecommons.org/ns#" xmlns:rdf="http://www.w3.org/1999/02/22-rdf-syntax-ns#">
   <cc:Work>
    <dc:type rdf:resource="http://purl.org/dc/dcmitype/StillImage"/>
    <dc:date>2026-09-13T10:52:24.458065</dc:date>
    <dc:format>image/svg+xml</dc:format>
    <dc:creator>
     <cc:Agent>
      <dc:title>Matplotlib v3.11.1, https://matplotlib.org/</dc:title>
     </cc:Agent>
    </dc:creator>
   </cc:Work>
  </rdf:RDF>
 </metadata>
 <defs>
  <style type="text/css">*{stroke-linejoin: round; stroke-linecap: butt}</style>
 </defs>
 <g id="figure_1">
  <g id="patch_1">
   <path d="M 0 410.4 
L 1008 410.4 
L 1008 0 
L 0 0 
z
" style="fill: #faf9f5"/>
  </g>
  <g id="axes_1">
   <g id="patch_2">
    <path d="M 100.8 328.32 
L 987.84 328.32 
L 987.84 24.624 
L 100.8 24.624 
z
" style="fill: #faf9f5"/>
   </g>
   <g id="matplotlib.axis_1">
    <g id="xtick_1">
     <g id="line2d_1">
      <defs>
       <path id="m04bc6ef707" d="M 0 0 
L 0 3.5 
" style="stroke: #334155; stroke-width: 0.8"/>
      </defs>
      <g>
       <use xlink:href="#m04bc6ef707" x="178.416" y="328.32" style="fill: #334155; stroke: #334155; stroke-width: 0.8"/>
      </g>
     </g>
     <g id="text_1">
      <!-- 2012 -->
      <g style="fill: #334155" transform="translate(159.534281 358.72) scale(0.18 -0.18)">
       <defs>
        <path id="Poppins-Regular-15" d="M 326 467 
Q 1139 1120 1600 1539 
Q 2061 1958 2377 2416 
Q 2694 2874 2694 3315 
Q 2694 3731 2492 3971 
Q 2291 4211 1843 4211 
Q 1408 4211 1168 3939 
Q 928 3667 909 3213 
L 346 3213 
Q 371 3930 780 4320 
Q 1190 4710 1837 4710 
Q 2496 4710 2883 4345 
Q 3270 3981 3270 3341 
Q 3270 2810 2953 2307 
Q 2637 1805 2233 1424 
Q 1830 1043 1203 538 
L 3405 538 
L 3405 51 
L 326 51 
L 326 467 
z
" transform="scale(0.015625)"/>
        <path id="Poppins-Regular-13" d="M 397 2362 
Q 397 3462 755 4080 
Q 1114 4698 2010 4698 
Q 2899 4698 3257 4080 
Q 3616 3462 3616 2362 
Q 3616 1242 3257 621 
Q 2899 0 2010 0 
Q 1114 0 755 621 
Q 397 1242 397 2362 
z
M 3040 2362 
Q 3040 2918 2966 3305 
Q 2893 3693 2665 3929 
Q 2438 4166 2010 4166 
Q 1574 4166 1347 3929 
Q 1120 3693 1046 3305 
Q 973 2918 973 2362 
Q 973 1786 1046 1395 
Q 1120 1005 1347 768 
Q 1574 531 2010 531 
Q 2438 531 2665 768 
Q 2893 1005 2966 1395 
Q 3040 1786 3040 2362 
z
" transform="scale(0.015625)"/>
        <path id="Poppins-Regular-14" d="M 243 4096 
L 243 4627 
L 1446 4627 
L 1446 0 
L 858 0 
L 858 4096 
L 243 4096 
z
" transform="scale(0.015625)"/>
       </defs>
       <use xlink:href="#Poppins-Regular-15"/>
       <use xlink:href="#Poppins-Regular-13" transform="translate(57.5 0)"/>
       <use xlink:href="#Poppins-Regular-14" transform="translate(120.296875 0)"/>
       <use xlink:href="#Poppins-Regular-15" transform="translate(152.296875 0)"/>
      </g>
     </g>
    </g>
    <g id="xtick_2">
     <g id="line2d_2">
      <g>
       <use xlink:href="#m04bc6ef707" x="400.176" y="328.32" style="fill: #334155; stroke: #334155; stroke-width: 0.8"/>
      </g>
     </g>
     <g id="text_2">
      <!-- 2013 -->
      <g style="fill: #334155" transform="translate(381.167719 358.72) scale(0.18 -0.18)">
       <defs>
        <path id="Poppins-Regular-16" d="M 384 3462 
Q 429 4051 838 4384 
Q 1248 4717 1901 4717 
Q 2336 4717 2653 4560 
Q 2970 4403 3133 4134 
Q 3296 3866 3296 3526 
Q 3296 3130 3069 2842 
Q 2842 2554 2477 2470 
L 2477 2438 
Q 2893 2336 3136 2035 
Q 3379 1734 3379 1248 
Q 3379 883 3212 592 
Q 3046 301 2713 134 
Q 2381 -32 1914 -32 
Q 1235 -32 800 323 
Q 365 678 314 1331 
L 877 1331 
Q 922 947 1190 704 
Q 1459 461 1907 461 
Q 2355 461 2588 694 
Q 2822 928 2822 1299 
Q 2822 1779 2502 1990 
Q 2182 2202 1536 2202 
L 1389 2202 
L 1389 2688 
L 1542 2688 
Q 2131 2694 2432 2883 
Q 2733 3072 2733 3469 
Q 2733 3808 2512 4013 
Q 2291 4218 1882 4218 
Q 1485 4218 1241 4013 
Q 998 3808 954 3462 
L 384 3462 
z
" transform="scale(0.015625)"/>
       </defs>
       <use xlink:href="#Poppins-Regular-15"/>
       <use xlink:href="#Poppins-Regular-13" transform="translate(57.5 0)"/>
       <use xlink:href="#Poppins-Regular-14" transform="translate(120.296875 0)"/>
       <use xlink:href="#Poppins-Regular-16" transform="translate(152.296875 0)"/>
      </g>
     </g>
    </g>
    <g id="xtick_3">
     <g id="line2d_3">
      <g>
       <use xlink:href="#m04bc6ef707" x="621.936" y="328.32" style="fill: #334155; stroke: #334155; stroke-width: 0.8"/>
      </g>
     </g>
     <g id="text_3">
      <!-- 2014 -->
      <g style="fill: #334155" transform="translate(602.567719 358.72) scale(0.18 -0.18)">
       <defs>
        <path id="Poppins-Regular-17" d="M 256 1030 
L 256 1472 
L 2502 4582 
L 3200 4582 
L 3200 1536 
L 3840 1536 
L 3840 1030 
L 3200 1030 
L 3200 0 
L 2624 0 
L 2624 1030 
L 256 1030 
z
M 2650 3974 
L 928 1536 
L 2650 1536 
L 2650 3974 
z
" transform="scale(0.015625)"/>
       </defs>
       <use xlink:href="#Poppins-Regular-15"/>
       <use xlink:href="#Poppins-Regular-13" transform="translate(57.5 0)"/>
       <use xlink:href="#Poppins-Regular-14" transform="translate(120.296875 0)"/>
       <use xlink:href="#Poppins-Regular-17" transform="translate(152.296875 0)"/>
      </g>
     </g>
    </g>
    <g id="xtick_4">
     <g id="line2d_4">
      <g>
       <use xlink:href="#m04bc6ef707" x="843.696" y="328.32" style="fill: #334155; stroke: #334155; stroke-width: 0.8"/>
      </g>
     </g>
     <g id="text_4">
      <!-- 2015 -->
      <g style="fill: #334155" transform="translate(824.337562 358.72) scale(0.18 -0.18)">
       <defs>
        <path id="Poppins-Regular-18" d="M 3347 4122 
L 1101 4122 
L 1101 2662 
Q 1248 2867 1536 2998 
Q 1824 3130 2157 3130 
Q 2688 3130 3021 2909 
Q 3354 2688 3498 2339 
Q 3642 1990 3642 1600 
Q 3642 1139 3469 774 
Q 3296 410 2941 198 
Q 2586 -13 2061 -13 
Q 1389 -13 973 332 
Q 557 678 467 1254 
L 1037 1254 
Q 1120 890 1389 685 
Q 1658 480 2067 480 
Q 2573 480 2829 784 
Q 3085 1088 3085 1587 
Q 3085 2086 2829 2358 
Q 2573 2630 2074 2630 
Q 1734 2630 1481 2467 
Q 1229 2304 1114 2022 
L 563 2022 
L 563 4634 
L 3347 4634 
L 3347 4122 
z
" transform="scale(0.015625)"/>
       </defs>
       <use xlink:href="#Poppins-Regular-15"/>
       <use xlink:href="#Poppins-Regular-13" transform="translate(57.5 0)"/>
       <use xlink:href="#Poppins-Regular-14" transform="translate(120.296875 0)"/>
       <use xlink:href="#Poppins-Regular-18" transform="translate(152.296875 0)"/>
      </g>
     </g>
    </g>
    <g id="text_5">
     <!-- ImageNet benchmark year -->
     <g style="fill: #334155" transform="translate(409.543437 401.02) scale(0.2 -0.2)">
      <defs>
       <path id="Poppins-Regular-2c" d="M 1075 4461 
L 1075 0 
L 493 0 
L 493 4461 
L 1075 4461 
z
" transform="scale(0.015625)"/>
       <path id="Poppins-Regular-50" d="M 4710 3571 
Q 5120 3571 5440 3401 
Q 5760 3232 5945 2893 
Q 6131 2554 6131 2067 
L 6131 0 
L 5555 0 
L 5555 1984 
Q 5555 2509 5296 2787 
Q 5037 3066 4595 3066 
Q 4141 3066 3872 2774 
Q 3603 2483 3603 1933 
L 3603 0 
L 3027 0 
L 3027 1984 
Q 3027 2509 2768 2787 
Q 2509 3066 2067 3066 
Q 1613 3066 1344 2774 
Q 1075 2483 1075 1933 
L 1075 0 
L 493 0 
L 493 3507 
L 1075 3507 
L 1075 3002 
Q 1248 3277 1539 3424 
Q 1830 3571 2182 3571 
Q 2624 3571 2963 3372 
Q 3302 3174 3469 2790 
Q 3616 3162 3955 3366 
Q 4294 3571 4710 3571 
z
" transform="scale(0.015625)"/>
       <path id="Poppins-Regular-44" d="M 275 1766 
Q 275 2304 492 2710 
Q 710 3117 1091 3341 
Q 1472 3565 1939 3565 
Q 2400 3565 2739 3366 
Q 3078 3168 3245 2867 
L 3245 3507 
L 3834 3507 
L 3834 0 
L 3245 0 
L 3245 653 
Q 3072 346 2729 144 
Q 2387 -58 1933 -58 
Q 1466 -58 1088 172 
Q 710 403 492 819 
Q 275 1235 275 1766 
z
M 3245 1760 
Q 3245 2157 3085 2451 
Q 2925 2746 2653 2902 
Q 2381 3059 2054 3059 
Q 1728 3059 1459 2905 
Q 1190 2752 1030 2457 
Q 870 2163 870 1766 
Q 870 1363 1030 1065 
Q 1190 768 1459 611 
Q 1728 454 2054 454 
Q 2381 454 2653 611 
Q 2925 768 3085 1065 
Q 3245 1363 3245 1760 
z
" transform="scale(0.015625)"/>
       <path id="Poppins-Regular-4a" d="M 1939 3565 
Q 2394 3565 2736 3366 
Q 3078 3168 3245 2867 
L 3245 3507 
L 3834 3507 
L 3834 -77 
Q 3834 -557 3629 -931 
Q 3424 -1306 3043 -1517 
Q 2662 -1728 2157 -1728 
Q 1466 -1728 1005 -1401 
Q 544 -1075 461 -512 
L 1037 -512 
Q 1133 -832 1433 -1027 
Q 1734 -1222 2157 -1222 
Q 2637 -1222 2941 -921 
Q 3245 -621 3245 -77 
L 3245 659 
Q 3072 352 2733 147 
Q 2394 -58 1939 -58 
Q 1472 -58 1091 172 
Q 710 403 492 819 
Q 275 1235 275 1766 
Q 275 2304 492 2710 
Q 710 3117 1091 3341 
Q 1472 3565 1939 3565 
z
M 3245 1760 
Q 3245 2157 3085 2451 
Q 2925 2746 2653 2902 
Q 2381 3059 2054 3059 
Q 1728 3059 1459 2905 
Q 1190 2752 1030 2457 
Q 870 2163 870 1766 
Q 870 1363 1030 1065 
Q 1190 768 1459 611 
Q 1728 454 2054 454 
Q 2381 454 2653 611 
Q 2925 768 3085 1065 
Q 3245 1363 3245 1760 
z
" transform="scale(0.015625)"/>
       <path id="Poppins-Regular-48" d="M 3693 1888 
Q 3693 1722 3674 1536 
L 870 1536 
Q 902 1018 1225 726 
Q 1549 435 2010 435 
Q 2387 435 2640 611 
Q 2893 787 2995 1082 
L 3622 1082 
Q 3482 576 3059 259 
Q 2637 -58 2010 -58 
Q 1510 -58 1116 166 
Q 723 390 499 803 
Q 275 1216 275 1760 
Q 275 2304 492 2713 
Q 710 3123 1104 3344 
Q 1498 3565 2010 3565 
Q 2509 3565 2893 3347 
Q 3277 3130 3485 2749 
Q 3693 2368 3693 1888 
z
M 3091 2010 
Q 3091 2342 2944 2582 
Q 2797 2822 2544 2947 
Q 2291 3072 1984 3072 
Q 1542 3072 1232 2790 
Q 922 2509 877 2010 
L 3091 2010 
z
" transform="scale(0.015625)"/>
       <path id="Poppins-Regular-31" d="M 4000 0 
L 3418 0 
L 1075 3552 
L 1075 0 
L 493 0 
L 493 4467 
L 1075 4467 
L 3418 922 
L 3418 4467 
L 4000 4467 
L 4000 0 
z
" transform="scale(0.015625)"/>
       <path id="Poppins-Regular-57" d="M 1203 3027 
L 1203 960 
Q 1203 704 1312 598 
Q 1421 493 1690 493 
L 2118 493 
L 2118 0 
L 1594 0 
Q 1107 0 864 224 
Q 621 448 621 960 
L 621 3027 
L 166 3027 
L 166 3507 
L 621 3507 
L 621 4390 
L 1203 4390 
L 1203 3507 
L 2118 3507 
L 2118 3027 
L 1203 3027 
z
" transform="scale(0.015625)"/>
       <path id="Poppins-Regular-3" transform="scale(0.015625)"/>
       <path id="Poppins-Regular-45" d="M 1075 2854 
Q 1254 3168 1600 3366 
Q 1946 3565 2387 3565 
Q 2861 3565 3238 3341 
Q 3616 3117 3833 2710 
Q 4051 2304 4051 1766 
Q 4051 1235 3833 819 
Q 3616 403 3235 172 
Q 2854 -58 2387 -58 
Q 1933 -58 1590 140 
Q 1248 339 1075 646 
L 1075 0 
L 493 0 
L 493 4736 
L 1075 4736 
L 1075 2854 
z
M 3456 1766 
Q 3456 2163 3296 2457 
Q 3136 2752 2864 2905 
Q 2592 3059 2266 3059 
Q 1946 3059 1674 2902 
Q 1402 2746 1238 2448 
Q 1075 2150 1075 1760 
Q 1075 1363 1238 1065 
Q 1402 768 1674 611 
Q 1946 454 2266 454 
Q 2592 454 2864 611 
Q 3136 768 3296 1065 
Q 3456 1363 3456 1766 
z
" transform="scale(0.015625)"/>
       <path id="Poppins-Regular-51" d="M 2202 3571 
Q 2842 3571 3238 3184 
Q 3635 2797 3635 2067 
L 3635 0 
L 3059 0 
L 3059 1984 
Q 3059 2509 2796 2787 
Q 2534 3066 2080 3066 
Q 1619 3066 1347 2778 
Q 1075 2490 1075 1939 
L 1075 0 
L 493 0 
L 493 3507 
L 1075 3507 
L 1075 3008 
Q 1248 3277 1545 3424 
Q 1843 3571 2202 3571 
z
" transform="scale(0.015625)"/>
       <path id="Poppins-Regular-46" d="M 275 1760 
Q 275 2304 492 2710 
Q 710 3117 1097 3341 
Q 1485 3565 1984 3565 
Q 2630 3565 3049 3251 
Q 3469 2938 3603 2381 
L 2976 2381 
Q 2886 2701 2627 2886 
Q 2368 3072 1984 3072 
Q 1485 3072 1177 2729 
Q 870 2387 870 1760 
Q 870 1126 1177 780 
Q 1485 435 1984 435 
Q 2368 435 2624 614 
Q 2880 794 2976 1126 
L 3603 1126 
Q 3462 589 3040 265 
Q 2618 -58 1984 -58 
Q 1485 -58 1097 166 
Q 710 390 492 800 
Q 275 1210 275 1760 
z
" transform="scale(0.015625)"/>
       <path id="Poppins-Regular-4b" d="M 2234 3571 
Q 2630 3571 2950 3401 
Q 3270 3232 3452 2893 
Q 3635 2554 3635 2067 
L 3635 0 
L 3059 0 
L 3059 1984 
Q 3059 2509 2796 2787 
Q 2534 3066 2080 3066 
Q 1619 3066 1347 2778 
Q 1075 2490 1075 1939 
L 1075 0 
L 493 0 
L 493 4736 
L 1075 4736 
L 1075 3008 
Q 1248 3277 1552 3424 
Q 1856 3571 2234 3571 
z
" transform="scale(0.015625)"/>
       <path id="Poppins-Regular-55" d="M 1075 2938 
Q 1229 3238 1513 3404 
Q 1798 3571 2208 3571 
L 2208 2970 
L 2054 2970 
Q 1075 2970 1075 1907 
L 1075 0 
L 493 0 
L 493 3507 
L 1075 3507 
L 1075 2938 
z
" transform="scale(0.015625)"/>
       <path id="Poppins-Regular-4e" d="M 2451 0 
L 1075 1549 
L 1075 0 
L 493 0 
L 493 4736 
L 1075 4736 
L 1075 1952 
L 2426 3507 
L 3238 3507 
L 1587 1760 
L 3245 0 
L 2451 0 
z
" transform="scale(0.015625)"/>
       <path id="Poppins-Regular-5c" d="M 3514 3507 
L 1402 -1651 
L 800 -1651 
L 1491 38 
L 77 3507 
L 723 3507 
L 1824 666 
L 2912 3507 
L 3514 3507 
z
" transform="scale(0.015625)"/>
      </defs>
      <use xlink:href="#Poppins-Regular-2c"/>
      <use xlink:href="#Poppins-Regular-50" transform="translate(24.59375 0)"/>
      <use xlink:href="#Poppins-Regular-44" transform="translate(127.59375 0)"/>
      <use xlink:href="#Poppins-Regular-4a" transform="translate(195.1875 0)"/>
      <use xlink:href="#Poppins-Regular-48" transform="translate(262.78125 0)"/>
      <use xlink:href="#Poppins-Regular-31" transform="translate(324.78125 0)"/>
      <use xlink:href="#Poppins-Regular-48" transform="translate(395.078125 0)"/>
      <use xlink:href="#Poppins-Regular-57" transform="translate(457.078125 0)"/>
      <use xlink:href="#Poppins-Regular-3" transform="translate(493.484375 0)"/>
      <use xlink:href="#Poppins-Regular-45" transform="translate(520.1875 0)"/>
      <use xlink:href="#Poppins-Regular-48" transform="translate(587.78125 0)"/>
      <use xlink:href="#Poppins-Regular-51" transform="translate(649.78125 0)"/>
      <use xlink:href="#Poppins-Regular-46" transform="translate(713.78125 0)"/>
      <use xlink:href="#Poppins-Regular-4b" transform="translate(774.484375 0)"/>
      <use xlink:href="#Poppins-Regular-50" transform="translate(838.484375 0)"/>
      <use xlink:href="#Poppins-Regular-44" transform="translate(941.484375 0)"/>
      <use xlink:href="#Poppins-Regular-55" transform="translate(1009.078125 0)"/>
      <use xlink:href="#Poppins-Regular-4e" transform="translate(1046.375 0)"/>
      <use xlink:href="#Poppins-Regular-3" transform="translate(1097.875 0)"/>
      <use xlink:href="#Poppins-Regular-5c" transform="translate(1124.578125 0)"/>
      <use xlink:href="#Poppins-Regular-48" transform="translate(1180.875 0)"/>
      <use xlink:href="#Poppins-Regular-44" transform="translate(1242.875 0)"/>
      <use xlink:href="#Poppins-Regular-55" transform="translate(1310.46875 0)"/>
     </g>
    </g>
   </g>
   <g id="matplotlib.axis_2">
    <g id="ytick_1">
     <g id="line2d_5">
      <path d="M 100.8 328.32 
L 987.84 328.32 
" clip-path="url(#pb92a320a5d)" style="fill: none; stroke: #e7e3da; stroke-linecap: square"/>
     </g>
     <g id="line2d_6">
      <defs>
       <path id="m69d77ffa7b" d="M 0 0 
L -3.5 0 
" style="stroke: #334155; stroke-width: 0.8"/>
      </defs>
      <g>
       <use xlink:href="#m69d77ffa7b" x="100.8" y="328.32" style="fill: #334155; stroke: #334155; stroke-width: 0.8"/>
      </g>
     </g>
     <g id="text_6">
      <!-- 80 -->
      <g style="fill: #334155" transform="translate(66.639688 337.77) scale(0.18 -0.18)">
       <defs>
        <path id="Poppins-Regular-1b" d="M 1242 2406 
Q 883 2547 691 2816 
Q 499 3085 499 3469 
Q 499 3814 672 4092 
Q 845 4371 1187 4534 
Q 1530 4698 2016 4698 
Q 2502 4698 2844 4534 
Q 3187 4371 3363 4092 
Q 3539 3814 3539 3469 
Q 3539 3098 3340 2819 
Q 3142 2541 2797 2406 
Q 3194 2285 3427 1981 
Q 3661 1677 3661 1248 
Q 3661 832 3456 521 
Q 3251 211 2876 41 
Q 2502 -128 2016 -128 
Q 1530 -128 1162 41 
Q 794 211 589 521 
Q 384 832 384 1248 
Q 384 1677 614 1984 
Q 845 2291 1242 2406 
z
M 2976 3398 
Q 2976 3789 2720 4000 
Q 2464 4211 2016 4211 
Q 1574 4211 1318 4000 
Q 1062 3789 1062 3392 
Q 1062 3034 1328 2816 
Q 1594 2598 2016 2598 
Q 2445 2598 2710 2819 
Q 2976 3040 2976 3398 
z
M 2016 2150 
Q 1542 2150 1241 1929 
Q 941 1709 941 1267 
Q 941 858 1232 608 
Q 1523 358 2016 358 
Q 2509 358 2797 608 
Q 3085 858 3085 1267 
Q 3085 1696 2790 1923 
Q 2496 2150 2016 2150 
z
" transform="scale(0.015625)"/>
       </defs>
       <use xlink:href="#Poppins-Regular-1b"/>
       <use xlink:href="#Poppins-Regular-13" transform="translate(63.09375 0)"/>
      </g>
     </g>
    </g>
    <g id="ytick_2">
     <g id="line2d_7">
      <path d="M 100.8 252.396 
L 987.84 252.396 
" clip-path="url(#pb92a320a5d)" style="fill: none; stroke: #e7e3da; stroke-linecap: square"/>
     </g>
     <g id="line2d_8">
      <g>
       <use xlink:href="#m69d77ffa7b" x="100.8" y="252.396" style="fill: #334155; stroke: #334155; stroke-width: 0.8"/>
      </g>
     </g>
     <g id="text_7">
      <!-- 85 -->
      <g style="fill: #334155" transform="translate(66.639688 261.846) scale(0.18 -0.18)">
       <use xlink:href="#Poppins-Regular-1b"/>
       <use xlink:href="#Poppins-Regular-18" transform="translate(63.09375 0)"/>
      </g>
     </g>
    </g>
    <g id="ytick_3">
     <g id="line2d_9">
      <path d="M 100.8 176.472 
L 987.84 176.472 
" clip-path="url(#pb92a320a5d)" style="fill: none; stroke: #e7e3da; stroke-linecap: square"/>
     </g>
     <g id="line2d_10">
      <g>
       <use xlink:href="#m69d77ffa7b" x="100.8" y="176.472" style="fill: #334155; stroke: #334155; stroke-width: 0.8"/>
      </g>
     </g>
     <g id="text_8">
      <!-- 90 -->
      <g style="fill: #334155" transform="translate(66.656563 185.922) scale(0.18 -0.18)">
       <defs>
        <path id="Poppins-Regular-1c" d="M 1146 1242 
Q 1210 877 1443 678 
Q 1677 480 2074 480 
Q 2605 480 2857 896 
Q 3110 1312 3098 2298 
Q 2963 2010 2649 1846 
Q 2336 1683 1952 1683 
Q 1523 1683 1187 1859 
Q 851 2035 659 2374 
Q 467 2714 467 3194 
Q 467 3878 864 4297 
Q 1261 4717 1990 4717 
Q 2886 4717 3248 4134 
Q 3610 3552 3610 2400 
Q 3610 1594 3466 1069 
Q 3322 544 2979 269 
Q 2637 -6 2042 -6 
Q 1389 -6 1024 346 
Q 659 698 608 1242 
L 1146 1242 
z
M 2048 2176 
Q 2477 2176 2752 2441 
Q 3027 2707 3027 3162 
Q 3027 3642 2758 3936 
Q 2490 4230 2003 4230 
Q 1555 4230 1289 3948 
Q 1024 3667 1024 3206 
Q 1024 2739 1286 2457 
Q 1549 2176 2048 2176 
z
" transform="scale(0.015625)"/>
       </defs>
       <use xlink:href="#Poppins-Regular-1c"/>
       <use xlink:href="#Poppins-Regular-13" transform="translate(63 0)"/>
      </g>
     </g>
    </g>
    <g id="ytick_4">
     <g id="line2d_11">
      <path d="M 100.8 100.548 
L 987.84 100.548 
" clip-path="url(#pb92a320a5d)" style="fill: none; stroke: #e7e3da; stroke-linecap: square"/>
     </g>
     <g id="line2d_12">
      <g>
       <use xlink:href="#m69d77ffa7b" x="100.8" y="100.548" style="fill: #334155; stroke: #334155; stroke-width: 0.8"/>
      </g>
     </g>
     <g id="text_9">
      <!-- 95 -->
      <g style="fill: #334155" transform="translate(66.656563 109.998) scale(0.18 -0.18)">
       <use xlink:href="#Poppins-Regular-1c"/>
       <use xlink:href="#Poppins-Regular-18" transform="translate(63 0)"/>
      </g>
     </g>
    </g>
    <g id="ytick_5">
     <g id="line2d_13">
      <path d="M 100.8 24.624 
L 987.84 24.624 
" clip-path="url(#pb92a320a5d)" style="fill: none; stroke: #e7e3da; stroke-linecap: square"/>
     </g>
     <g id="line2d_14">
      <g>
       <use xlink:href="#m69d77ffa7b" x="100.8" y="24.624" style="fill: #334155; stroke: #334155; stroke-width: 0.8"/>
      </g>
     </g>
     <g id="text_10">
      <!-- 100 -->
      <g style="fill: #334155" transform="translate(60.933125 34.074) scale(0.18 -0.18)">
       <use xlink:href="#Poppins-Regular-14"/>
       <use xlink:href="#Poppins-Regular-13" transform="translate(32 0)"/>
       <use xlink:href="#Poppins-Regular-13" transform="translate(94.796875 0)"/>
      </g>
     </g>
    </g>
    <g id="text_11">
     <!-- Top-5 accuracy (%) -->
     <g style="fill: #334155" transform="translate(38.583125 281.324344) rotate(-90) scale(0.21 -0.21)">
      <defs>
       <path id="Poppins-Regular-37" d="M 3238 4461 
L 3238 3987 
L 2022 3987 
L 2022 0 
L 1440 0 
L 1440 3987 
L 218 3987 
L 218 4461 
L 3238 4461 
z
" transform="scale(0.015625)"/>
       <path id="Poppins-Regular-52" d="M 2022 -58 
Q 1530 -58 1130 166 
Q 730 390 502 803 
Q 275 1216 275 1760 
Q 275 2298 508 2710 
Q 742 3123 1145 3344 
Q 1549 3565 2048 3565 
Q 2547 3565 2950 3344 
Q 3354 3123 3587 2713 
Q 3821 2304 3821 1760 
Q 3821 1216 3581 803 
Q 3341 390 2931 166 
Q 2522 -58 2022 -58 
z
M 2022 454 
Q 2336 454 2611 601 
Q 2886 749 3056 1043 
Q 3226 1338 3226 1760 
Q 3226 2182 3059 2476 
Q 2893 2771 2624 2915 
Q 2355 3059 2042 3059 
Q 1722 3059 1456 2915 
Q 1190 2771 1030 2476 
Q 870 2182 870 1760 
Q 870 1331 1027 1036 
Q 1184 742 1446 598 
Q 1709 454 2022 454 
z
" transform="scale(0.015625)"/>
       <path id="Poppins-Regular-53" d="M 1075 2861 
Q 1248 3162 1590 3363 
Q 1933 3565 2387 3565 
Q 2854 3565 3235 3341 
Q 3616 3117 3833 2710 
Q 4051 2304 4051 1766 
Q 4051 1235 3833 819 
Q 3616 403 3235 172 
Q 2854 -58 2387 -58 
Q 1939 -58 1596 144 
Q 1254 346 1075 646 
L 1075 -1664 
L 493 -1664 
L 493 3507 
L 1075 3507 
L 1075 2861 
z
M 3456 1766 
Q 3456 2163 3296 2457 
Q 3136 2752 2864 2905 
Q 2592 3059 2266 3059 
Q 1946 3059 1674 2902 
Q 1402 2746 1238 2448 
Q 1075 2150 1075 1760 
Q 1075 1363 1238 1065 
Q 1402 768 1674 611 
Q 1946 454 2266 454 
Q 2592 454 2864 611 
Q 3136 768 3296 1065 
Q 3456 1363 3456 1766 
z
" transform="scale(0.015625)"/>
       <path id="Poppins-Regular-10" d="M 2925 2592 
L 2925 2099 
L 371 2099 
L 371 2592 
L 2925 2592 
z
" transform="scale(0.015625)"/>
       <path id="Poppins-Regular-58" d="M 3603 3507 
L 3603 0 
L 3021 0 
L 3021 518 
Q 2854 250 2556 99 
Q 2259 -51 1901 -51 
Q 1491 -51 1164 118 
Q 838 288 649 627 
Q 461 966 461 1453 
L 461 3507 
L 1037 3507 
L 1037 1530 
Q 1037 1011 1299 732 
Q 1562 454 2016 454 
Q 2483 454 2752 742 
Q 3021 1030 3021 1581 
L 3021 3507 
L 3603 3507 
z
" transform="scale(0.015625)"/>
       <path id="Poppins-Regular-b" d="M 1990 -1190 
Q 1376 -589 1033 339 
Q 691 1267 691 2342 
Q 691 3443 1052 4400 
Q 1414 5357 2086 5978 
L 2694 5978 
L 2694 5920 
Q 1978 5248 1616 4304 
Q 1254 3360 1254 2342 
Q 1254 1350 1596 448 
Q 1939 -454 2598 -1133 
L 2598 -1190 
L 1990 -1190 
z
" transform="scale(0.015625)"/>
       <path id="Poppins-Regular-8" d="M 269 3584 
Q 269 4019 531 4278 
Q 794 4538 1203 4538 
Q 1613 4538 1875 4278 
Q 2138 4019 2138 3584 
Q 2138 3142 1875 2883 
Q 1613 2624 1203 2624 
Q 794 2624 531 2883 
Q 269 3142 269 3584 
z
M 4006 4467 
L 1414 0 
L 838 0 
L 3430 4467 
L 4006 4467 
z
M 1203 4179 
Q 986 4179 861 4028 
Q 736 3878 736 3584 
Q 736 3290 861 3136 
Q 986 2982 1203 2982 
Q 1421 2982 1549 3139 
Q 1677 3296 1677 3584 
Q 1677 3878 1549 4028 
Q 1421 4179 1203 4179 
z
M 2720 883 
Q 2720 1325 2982 1584 
Q 3245 1843 3654 1843 
Q 4064 1843 4323 1584 
Q 4582 1325 4582 883 
Q 4582 448 4323 185 
Q 4064 -77 3654 -77 
Q 3245 -77 2982 182 
Q 2720 442 2720 883 
z
M 3648 1478 
Q 3430 1478 3302 1328 
Q 3174 1178 3174 883 
Q 3174 595 3302 444 
Q 3430 294 3648 294 
Q 3866 294 3994 444 
Q 4122 595 4122 883 
Q 4122 1178 3994 1328 
Q 3866 1478 3648 1478 
z
" transform="scale(0.015625)"/>
       <path id="Poppins-Regular-c" d="M 307 -1190 
L 307 -1133 
Q 966 -454 1308 448 
Q 1651 1350 1651 2342 
Q 1651 3360 1289 4304 
Q 928 5248 211 5920 
L 211 5978 
L 819 5978 
Q 1491 5357 1852 4400 
Q 2214 3443 2214 2342 
Q 2214 1267 1872 339 
Q 1530 -589 915 -1190 
L 307 -1190 
z
" transform="scale(0.015625)"/>
      </defs>
      <use xlink:href="#Poppins-Regular-37"/>
      <use xlink:href="#Poppins-Regular-52" transform="translate(54.09375 0)"/>
      <use xlink:href="#Poppins-Regular-53" transform="translate(118.09375 0)"/>
      <use xlink:href="#Poppins-Regular-10" transform="translate(185.6875 0)"/>
      <use xlink:href="#Poppins-Regular-18" transform="translate(240.78125 0)"/>
      <use xlink:href="#Poppins-Regular-3" transform="translate(303.578125 0)"/>
      <use xlink:href="#Poppins-Regular-44" transform="translate(330.28125 0)"/>
      <use xlink:href="#Poppins-Regular-46" transform="translate(397.875 0)"/>
      <use xlink:href="#Poppins-Regular-46" transform="translate(458.578125 0)"/>
      <use xlink:href="#Poppins-Regular-58" transform="translate(519.28125 0)"/>
      <use xlink:href="#Poppins-Regular-55" transform="translate(583.28125 0)"/>
      <use xlink:href="#Poppins-Regular-44" transform="translate(620.578125 0)"/>
      <use xlink:href="#Poppins-Regular-46" transform="translate(688.171875 0)"/>
      <use xlink:href="#Poppins-Regular-5c" transform="translate(748.875 0)"/>
      <use xlink:href="#Poppins-Regular-3" transform="translate(805.171875 0)"/>
      <use xlink:href="#Poppins-Regular-b" transform="translate(831.875 0)"/>
      <use xlink:href="#Poppins-Regular-8" transform="translate(877.28125 0)"/>
      <use xlink:href="#Poppins-Regular-c" transform="translate(953.1875 0)"/>
     </g>
    </g>
   </g>
   <g id="line2d_15">
    <path d="M 178.416 273.65472 
L 400.176 202.28616 
L 621.936 126.36216 
L 843.696 79.28928 
" clip-path="url(#pb92a320a5d)" style="fill: none; stroke: #3e6d8e; stroke-width: 2; stroke-linecap: square"/>
   </g>
   <g id="patch_3">
    <path d="M 100.8 328.32 
L 100.8 24.624 
" style="fill: none; stroke: #334155; stroke-width: 1.6; stroke-linejoin: miter; stroke-linecap: square"/>
   </g>
   <g id="patch_4">
    <path d="M 100.8 328.32 
L 987.84 328.32 
" style="fill: none; stroke: #334155; stroke-width: 1.6; stroke-linejoin: miter; stroke-linecap: square"/>
   </g>
   <g id="patch_5">
    <path d="M 175.846476 257.595193 
Q 176.578251 262.168786 177.310026 266.74238 
" style="fill: none; stroke: #3e6d8e; stroke-linecap: round"/>
   </g>
   <g id="text_12">
    <!-- AlexNet family -->
    <g style="fill: #1e293b" transform="translate(106.849281 216.45472) scale(0.18 -0.18)">
     <defs>
      <path id="Poppins-Regular-24" d="M 3130 992 
L 1184 992 
L 826 0 
L 211 0 
L 1824 4435 
L 2496 4435 
L 4102 0 
L 3488 0 
L 3130 992 
z
M 2963 1466 
L 2157 3718 
L 1350 1466 
L 2963 1466 
z
" transform="scale(0.015625)"/>
      <path id="Poppins-Regular-4f" d="M 1075 4736 
L 1075 0 
L 493 0 
L 493 4736 
L 1075 4736 
z
" transform="scale(0.015625)"/>
      <path id="Poppins-Regular-5b" d="M 2323 0 
L 1491 1306 
L 691 0 
L 83 0 
L 1216 1741 
L 83 3507 
L 742 3507 
L 1574 2208 
L 2368 3507 
L 2976 3507 
L 1850 1773 
L 2982 0 
L 2323 0 
z
" transform="scale(0.015625)"/>
      <path id="Poppins-Regular-49" d="M 1920 3027 
L 1184 3027 
L 1184 0 
L 602 0 
L 602 3027 
L 147 3027 
L 147 3507 
L 602 3507 
L 602 3757 
Q 602 4346 906 4618 
Q 1210 4890 1882 4890 
L 1882 4403 
Q 1498 4403 1341 4252 
Q 1184 4102 1184 3757 
L 1184 3507 
L 1920 3507 
L 1920 3027 
z
" transform="scale(0.015625)"/>
      <path id="Poppins-Regular-4c" d="M 794 4077 
Q 627 4077 512 4192 
Q 397 4307 397 4474 
Q 397 4640 512 4755 
Q 627 4870 794 4870 
Q 954 4870 1066 4755 
Q 1178 4640 1178 4474 
Q 1178 4307 1066 4192 
Q 954 4077 794 4077 
z
M 1075 3507 
L 1075 0 
L 493 0 
L 493 3507 
L 1075 3507 
z
" transform="scale(0.015625)"/>
     </defs>
     <use xlink:href="#Poppins-Regular-24"/>
     <use xlink:href="#Poppins-Regular-4f" transform="translate(67.40625 0)"/>
     <use xlink:href="#Poppins-Regular-48" transform="translate(92 0)"/>
     <use xlink:href="#Poppins-Regular-5b" transform="translate(154 0)"/>
     <use xlink:href="#Poppins-Regular-31" transform="translate(201.90625 0)"/>
     <use xlink:href="#Poppins-Regular-48" transform="translate(272.203125 0)"/>
     <use xlink:href="#Poppins-Regular-57" transform="translate(334.203125 0)"/>
     <use xlink:href="#Poppins-Regular-3" transform="translate(370.609375 0)"/>
     <use xlink:href="#Poppins-Regular-49" transform="translate(397.3125 0)"/>
     <use xlink:href="#Poppins-Regular-44" transform="translate(430.21875 0)"/>
     <use xlink:href="#Poppins-Regular-50" transform="translate(497.8125 0)"/>
     <use xlink:href="#Poppins-Regular-4c" transform="translate(600.8125 0)"/>
     <use xlink:href="#Poppins-Regular-4f" transform="translate(625.40625 0)"/>
     <use xlink:href="#Poppins-Regular-5c" transform="translate(650 0)"/>
    </g>
    <!-- 83.6% -->
    <g style="fill: #1e293b" transform="translate(144.999437 243.45472) scale(0.18 -0.18)">
     <defs>
      <path id="Poppins-Regular-11" d="M 678 -38 
Q 512 -38 397 77 
Q 282 192 282 358 
Q 282 525 397 640 
Q 512 755 678 755 
Q 838 755 950 640 
Q 1062 525 1062 358 
Q 1062 192 950 77 
Q 838 -38 678 -38 
z
" transform="scale(0.015625)"/>
      <path id="Poppins-Regular-19" d="M 2976 3526 
Q 2835 4237 2099 4237 
Q 1530 4237 1248 3798 
Q 966 3360 973 2355 
Q 1120 2688 1462 2877 
Q 1805 3066 2227 3066 
Q 2886 3066 3280 2656 
Q 3674 2246 3674 1523 
Q 3674 1088 3504 742 
Q 3334 397 2992 192 
Q 2650 -13 2163 -13 
Q 1504 -13 1133 281 
Q 762 576 614 1094 
Q 467 1613 467 2374 
Q 467 4723 2106 4723 
Q 2733 4723 3091 4384 
Q 3450 4045 3514 3526 
L 2976 3526 
z
M 2106 2573 
Q 1830 2573 1587 2461 
Q 1344 2349 1193 2121 
Q 1043 1894 1043 1568 
Q 1043 1082 1324 778 
Q 1606 474 2131 474 
Q 2579 474 2844 752 
Q 3110 1030 3110 1504 
Q 3110 2003 2854 2288 
Q 2598 2573 2106 2573 
z
" transform="scale(0.015625)"/>
     </defs>
     <use xlink:href="#Poppins-Regular-1b"/>
     <use xlink:href="#Poppins-Regular-16" transform="translate(63.09375 0)"/>
     <use xlink:href="#Poppins-Regular-11" transform="translate(122 0)"/>
     <use xlink:href="#Poppins-Regular-19" transform="translate(143 0)"/>
     <use xlink:href="#Poppins-Regular-8" transform="translate(206.5 0)"/>
    </g>
   </g>
   <g id="patch_6">
    <path d="M 400.176 221.284749 
Q 400.176 215.285072 400.176 209.285396 
" style="fill: none; stroke: #3e6d8e; stroke-linecap: round"/>
   </g>
   <g id="text_13">
    <!-- Clarifai -->
    <g style="fill: #1e293b" transform="translate(368.10225 248.08616) scale(0.18 -0.18)">
     <defs>
      <path id="Poppins-Regular-26" d="M 275 2234 
Q 275 2886 569 3408 
Q 864 3930 1373 4224 
Q 1882 4518 2502 4518 
Q 3232 4518 3776 4166 
Q 4320 3814 4570 3168 
L 3872 3168 
Q 3686 3571 3337 3788 
Q 2989 4006 2502 4006 
Q 2035 4006 1664 3788 
Q 1293 3571 1081 3171 
Q 870 2771 870 2234 
Q 870 1702 1081 1302 
Q 1293 902 1664 684 
Q 2035 467 2502 467 
Q 2989 467 3337 681 
Q 3686 896 3872 1299 
L 4570 1299 
Q 4320 659 3776 310 
Q 3232 -38 2502 -38 
Q 1882 -38 1373 253 
Q 864 544 569 1062 
Q 275 1581 275 2234 
z
" transform="scale(0.015625)"/>
     </defs>
     <use xlink:href="#Poppins-Regular-26"/>
     <use xlink:href="#Poppins-Regular-4f" transform="translate(77.203125 0)"/>
     <use xlink:href="#Poppins-Regular-44" transform="translate(101.796875 0)"/>
     <use xlink:href="#Poppins-Regular-55" transform="translate(169.390625 0)"/>
     <use xlink:href="#Poppins-Regular-4c" transform="translate(206.6875 0)"/>
     <use xlink:href="#Poppins-Regular-49" transform="translate(231.28125 0)"/>
     <use xlink:href="#Poppins-Regular-44" transform="translate(264.1875 0)"/>
     <use xlink:href="#Poppins-Regular-4c" transform="translate(331.78125 0)"/>
    </g>
    <!-- 88.3% -->
    <g style="fill: #1e293b" transform="translate(374.796 275.08616) scale(0.18 -0.18)">
     <use xlink:href="#Poppins-Regular-1b"/>
     <use xlink:href="#Poppins-Regular-1b" transform="translate(63.09375 0)"/>
     <use xlink:href="#Poppins-Regular-11" transform="translate(126.1875 0)"/>
     <use xlink:href="#Poppins-Regular-16" transform="translate(147.1875 0)"/>
     <use xlink:href="#Poppins-Regular-8" transform="translate(206.09375 0)"/>
    </g>
   </g>
   <g id="patch_7">
    <path d="M 610.402805 120.531833 
Q 613.045359 121.867713 615.687914 123.203592 
" style="fill: none; stroke: #3e6d8e; stroke-linecap: round"/>
   </g>
   <g id="text_14">
    <!-- GoogLeNet -->
    <g style="fill: #1e293b" transform="translate(505.422562 85.16216) scale(0.18 -0.18)">
     <defs>
      <path id="Poppins-Regular-2a" d="M 3872 3168 
Q 3686 3558 3334 3772 
Q 2982 3987 2515 3987 
Q 2048 3987 1673 3772 
Q 1299 3558 1084 3158 
Q 870 2758 870 2234 
Q 870 1709 1084 1312 
Q 1299 915 1673 700 
Q 2048 486 2515 486 
Q 3168 486 3590 876 
Q 4013 1267 4083 1933 
L 2304 1933 
L 2304 2406 
L 4704 2406 
L 4704 1958 
Q 4653 1408 4358 950 
Q 4064 493 3584 227 
Q 3104 -38 2515 -38 
Q 1894 -38 1382 253 
Q 870 544 572 1062 
Q 275 1581 275 2234 
Q 275 2886 572 3408 
Q 870 3930 1382 4221 
Q 1894 4512 2515 4512 
Q 3226 4512 3773 4160 
Q 4320 3808 4570 3168 
L 3872 3168 
z
" transform="scale(0.015625)"/>
      <path id="Poppins-Regular-2f" d="M 1075 474 
L 2637 474 
L 2637 0 
L 493 0 
L 493 4461 
L 1075 4461 
L 1075 474 
z
" transform="scale(0.015625)"/>
     </defs>
     <use xlink:href="#Poppins-Regular-2a"/>
     <use xlink:href="#Poppins-Regular-52" transform="translate(77.796875 0)"/>
     <use xlink:href="#Poppins-Regular-52" transform="translate(141.796875 0)"/>
     <use xlink:href="#Poppins-Regular-4a" transform="translate(205.796875 0)"/>
     <use xlink:href="#Poppins-Regular-2f" transform="translate(273.390625 0)"/>
     <use xlink:href="#Poppins-Regular-48" transform="translate(316.59375 0)"/>
     <use xlink:href="#Poppins-Regular-31" transform="translate(378.59375 0)"/>
     <use xlink:href="#Poppins-Regular-48" transform="translate(448.890625 0)"/>
     <use xlink:href="#Poppins-Regular-57" transform="translate(510.890625 0)"/>
    </g>
    <!-- 93.3% -->
    <g style="fill: #1e293b" transform="translate(553.946625 112.16216) scale(0.18 -0.18)">
     <use xlink:href="#Poppins-Regular-1c"/>
     <use xlink:href="#Poppins-Regular-16" transform="translate(63 0)"/>
     <use xlink:href="#Poppins-Regular-11" transform="translate(121.90625 0)"/>
     <use xlink:href="#Poppins-Regular-16" transform="translate(142.90625 0)"/>
     <use xlink:href="#Poppins-Regular-8" transform="translate(201.8125 0)"/>
    </g>
   </g>
   <g id="patch_8">
    <path d="M 640.452887 154.570489 
Q 633.629984 147.533667 626.80708 140.496844 
" style="fill: none; stroke: #3e6d8e; stroke-linecap: round"/>
   </g>
   <g id="text_15">
    <!-- VGG -->
    <g style="fill: #1e293b" transform="translate(645.936 178.27304) scale(0.18 -0.18)">
     <defs>
      <path id="Poppins-Regular-39" d="M 4179 4461 
L 2496 0 
L 1824 0 
L 141 4461 
L 762 4461 
L 2163 614 
L 3565 4461 
L 4179 4461 
z
" transform="scale(0.015625)"/>
     </defs>
     <use xlink:href="#Poppins-Regular-39"/>
     <use xlink:href="#Poppins-Regular-2a" transform="translate(67.59375 0)"/>
     <use xlink:href="#Poppins-Regular-2a" transform="translate(145.390625 0)"/>
    </g>
    <!-- 92.7% -->
    <g style="fill: #1e293b" transform="translate(645.936 205.27304) scale(0.18 -0.18)">
     <defs>
      <path id="Poppins-Regular-1a" d="M 3245 4173 
L 1466 0 
L 877 0 
L 2682 4115 
L 211 4115 
L 211 4614 
L 3245 4614 
L 3245 4173 
z
" transform="scale(0.015625)"/>
     </defs>
     <use xlink:href="#Poppins-Regular-1c"/>
     <use xlink:href="#Poppins-Regular-15" transform="translate(63 0)"/>
     <use xlink:href="#Poppins-Regular-11" transform="translate(120.5 0)"/>
     <use xlink:href="#Poppins-Regular-1a" transform="translate(141.5 0)"/>
     <use xlink:href="#Poppins-Regular-8" transform="translate(196.09375 0)"/>
    </g>
   </g>
   <g id="patch_9">
    <path d="M 851.754373 78.061225 
Q 851.185802 78.147872 850.61723 78.23452 
" style="fill: none; stroke: #3e6d8e; stroke-linecap: round"/>
   </g>
   <g id="text_16">
    <!-- ResNet -->
    <g style="fill: #1e293b" transform="translate(858.696 65.08928) scale(0.18 -0.18)">
     <defs>
      <path id="Poppins-Regular-35" d="M 2842 0 
L 1779 1824 
L 1075 1824 
L 1075 0 
L 493 0 
L 493 4461 
L 1933 4461 
Q 2438 4461 2787 4288 
Q 3136 4115 3309 3820 
Q 3482 3526 3482 3149 
Q 3482 2688 3216 2336 
Q 2950 1984 2419 1869 
L 3539 0 
L 2842 0 
z
M 1075 2291 
L 1933 2291 
Q 2406 2291 2643 2524 
Q 2880 2758 2880 3149 
Q 2880 3546 2646 3763 
Q 2413 3981 1933 3981 
L 1075 3981 
L 1075 2291 
z
" transform="scale(0.015625)"/>
      <path id="Poppins-Regular-56" d="M 1734 -58 
Q 1331 -58 1011 80 
Q 691 218 505 464 
Q 320 710 301 1030 
L 902 1030 
Q 928 768 1149 601 
Q 1370 435 1728 435 
Q 2061 435 2253 582 
Q 2445 730 2445 954 
Q 2445 1184 2240 1296 
Q 2035 1408 1606 1517 
Q 1216 1619 969 1724 
Q 723 1830 547 2038 
Q 371 2246 371 2586 
Q 371 2854 531 3078 
Q 691 3302 985 3433 
Q 1280 3565 1658 3565 
Q 2240 3565 2598 3270 
Q 2957 2976 2982 2464 
L 2400 2464 
Q 2381 2739 2179 2905 
Q 1978 3072 1638 3072 
Q 1325 3072 1139 2937 
Q 954 2803 954 2586 
Q 954 2413 1066 2301 
Q 1178 2189 1347 2121 
Q 1517 2054 1818 1971 
Q 2195 1869 2432 1769 
Q 2669 1670 2838 1472 
Q 3008 1274 3014 954 
Q 3014 666 2854 435 
Q 2694 205 2403 73 
Q 2112 -58 1734 -58 
z
" transform="scale(0.015625)"/>
     </defs>
     <use xlink:href="#Poppins-Regular-35"/>
     <use xlink:href="#Poppins-Regular-48" transform="translate(60.796875 0)"/>
     <use xlink:href="#Poppins-Regular-56" transform="translate(122.796875 0)"/>
     <use xlink:href="#Poppins-Regular-31" transform="translate(175 0)"/>
     <use xlink:href="#Poppins-Regular-48" transform="translate(245.296875 0)"/>
     <use xlink:href="#Poppins-Regular-57" transform="translate(307.296875 0)"/>
    </g>
    <!-- 96.4% -->
    <g style="fill: #1e293b" transform="translate(858.696 92.08928) scale(0.18 -0.18)">
     <use xlink:href="#Poppins-Regular-1c"/>
     <use xlink:href="#Poppins-Regular-19" transform="translate(63 0)"/>
     <use xlink:href="#Poppins-Regular-11" transform="translate(126.5 0)"/>
     <use xlink:href="#Poppins-Regular-17" transform="translate(147.5 0)"/>
     <use xlink:href="#Poppins-Regular-8" transform="translate(210.40625 0)"/>
    </g>
   </g>
   <g id="PathCollection_1">
    <defs>
     <path id="mbaffe9e445" d="M 0 4.743416 
C 1.257969 4.743416 2.464584 4.24362 3.354102 3.354102 
C 4.24362 2.464584 4.743416 1.257969 4.743416 0 
C 4.743416 -1.257969 4.24362 -2.464584 3.354102 -3.354102 
C 2.464584 -4.24362 1.257969 -4.743416 0 -4.743416 
C -1.257969 -4.743416 -2.464584 -4.24362 -3.354102 -3.354102 
C -4.24362 -2.464584 -4.743416 -1.257969 -4.743416 0 
C -4.743416 1.257969 -4.24362 2.464584 -3.354102 3.354102 
C -2.464584 4.24362 -1.257969 4.743416 0 4.743416 
z
" style="stroke: #faf9f5; stroke-width: 1.5"/>
    </defs>
    <g clip-path="url(#pb92a320a5d)">
     <use xlink:href="#mbaffe9e445" x="178.416" y="273.65472" style="fill: #3e6d8e; stroke: #faf9f5; stroke-width: 1.5"/>
    </g>
   </g>
   <g id="PathCollection_2">
    <g clip-path="url(#pb92a320a5d)">
     <use xlink:href="#mbaffe9e445" x="400.176" y="202.28616" style="fill: #3e6d8e; stroke: #faf9f5; stroke-width: 1.5"/>
    </g>
   </g>
   <g id="PathCollection_3">
    <g clip-path="url(#pb92a320a5d)">
     <use xlink:href="#mbaffe9e445" x="621.936" y="126.36216" style="fill: #3e6d8e; stroke: #faf9f5; stroke-width: 1.5"/>
    </g>
   </g>
   <g id="PathCollection_4">
    <g clip-path="url(#pb92a320a5d)">
     <use xlink:href="#mbaffe9e445" x="621.936" y="135.47304" style="fill: #3e6d8e; stroke: #faf9f5; stroke-width: 1.5"/>
    </g>
   </g>
   <g id="PathCollection_5">
    <g clip-path="url(#pb92a320a5d)">
     <use xlink:href="#mbaffe9e445" x="843.696" y="79.28928" style="fill: #3e6d8e; stroke: #faf9f5; stroke-width: 1.5"/>
    </g>
   </g>
  </g>
 </g>
 <defs>
  <clipPath id="pb92a320a5d">
   <rect x="100.8" y="24.624" width="887.04" height="303.696"/>
  </clipPath>
 </defs>
</svg>
